# xmcd
#
# Track frame offsets: 
#        150
#        19610
#        36392
#
# Disc length: 917 seconds
#
# Revision: 3
# Processed by: cddbd v1.5.2PL0 Copyright (c) Steve Scherf et al.
# Submitted via: ExactAudioCopyFreeDBPlugin 1.0
#
DISCID=1c039303
DTITLE=The Cure - Close To Me - Remix [CD Single)
DYEAR=1990
DGENRE=Rock
TTITLE0=Close To Me (Closest Mix)
TTITLE1=Just Like Heaven (Dizzy Mix)
TTITLE2=Primary (Red Mix)
EXTD=This is a CD Single.
EXTT0=
EXTT1=
EXTT2=
PLAYORDER=
